<svg data-v-4c754b49="" id="mobile" xmlns="http://www.w3.org/2000/svg" width="339.352" height="48.771" viewBox="0 0 339.352 48.771"><g data-v-4c754b49="" id="cainabel_logo_white_single" transform="translate(-282.924 -744.5)"><g data-v-4c754b49="" id="Group_384" data-name="Group 384" transform="translate(282.924 744.5)"><path data-v-4c754b49="" id="Path_323" data-name="Path 323" d="M77.7,245.474a18.48,18.48,0,0,1,32.329-12.108l-5.536,4.832a10.2,10.2,0,0,0-8.376-4.059c-5.793,0-10.749,4.634-10.749,11.4S90.319,256.8,96.113,256.8a10.478,10.478,0,0,0,9.079-5.085l6.185,4.252c-2.964,4.569-8.113,7.855-15.265,7.855A18.2,18.2,0,0,1,77.7,245.474Z" transform="translate(-77.696 -215.207)" fill="#fff"></path> <path data-v-4c754b49="" id="Path_324" data-name="Path 324" d="M102.624,227.122a15.615,15.615,0,0,1,10.3,3.667v-3.023h8.049v35.416h-8.049v-3.028a15.591,15.591,0,0,1-10.3,3.673,18.141,18.141,0,0,1-18.352-18.352A18.385,18.385,0,0,1,102.624,227.122Zm-10.69,18.417c0,6.7,4.961,11.265,10.755,11.265,6.438,0,10.819-5.149,10.819-11.265,0-6.186-4.312-11.4-10.819-11.4C96.9,234.14,91.934,238.709,91.934,245.539Z" transform="translate(-48.964 -215.207)" fill="#fff"></path> <path data-v-4c754b49="" id="Path_325" data-name="Path 325" d="M92.348,229.472a4.677,4.677,0,0,1,4.768-4.569,4.729,4.729,0,0,1,4.827,4.569,4.678,4.678,0,0,1-4.827,4.51A4.625,4.625,0,0,1,92.348,229.472Zm.451,7.99h8.049v35.416H92.8Z" transform="translate(-13.677 -224.903)" fill="#fff"></path> <path data-v-4c754b49="" id="Path_326" data-name="Path 326" d="M103.107,227.766v3.216c1.933-2.056,5.09-3.861,10.175-3.861a13.581,13.581,0,0,1,13.842,13.842v22.218h-8.049l.064-21.123c0-5.02-2.513-7.92-7.92-7.92-4.9,0-7.92,3.216-7.92,7.92v21.123H95.252V227.766Z" transform="translate(-0.989 -215.207)" fill="#fff"></path></g> <g data-v-4c754b49="" id="Group_381" data-name="Group 381" transform="translate(414.452 746.907)"><path data-v-4c754b49="" id="Path_327" data-name="Path 327" d="M68.787,261.8c0-4.44,2.32-8.242,6.7-11.265a12.716,12.716,0,0,1-.773-4.188c0-5.214,4.376-9.466,11.206-9.466a13.245,13.245,0,0,1,11.394,5.605l-6.18,3.667a5.536,5.536,0,0,0-4.961-2.706c-2.314,0-4.054,1.417-4.054,3.222,0,1.546.966,2.9,2.513,4.639l10.433,11.329a16.586,16.586,0,0,0,3.216-4.247l4.639,5.026a21.813,21.813,0,0,1-3.157,4.376l6.309,6.889H96.154l-1.863-2.062a19.139,19.139,0,0,1-9.982,2.706C75.166,275.324,68.787,269.853,68.787,261.8Zm20.607,5.541-9.982-10.884c-2.443,1.611-3.216,3.415-3.216,5.342,0,3.995,2.894,6.83,8.242,6.83A11.572,11.572,0,0,0,89.394,267.34Z" transform="translate(-68.787 -228.96)" fill="#fff"></path> <path data-v-4c754b49="" id="Path_328" data-name="Path 328" d="M94.507,237.2a15.6,15.6,0,0,1,10.3,3.667v-3.023h8.054v35.416h-8.054v-3.023a15.6,15.6,0,0,1-10.3,3.667,18.145,18.145,0,0,1-18.352-18.352A18.385,18.385,0,0,1,94.507,237.2ZM83.822,255.621c0,6.7,4.956,11.27,10.749,11.27,6.443,0,10.819-5.154,10.819-11.27,0-6.18-4.312-11.4-10.819-11.4C88.778,244.222,83.822,248.8,83.822,255.621Z" transform="translate(-36.594 -227.545)" fill="#fff"></path> <path data-v-4c754b49="" id="Path_329" data-name="Path 329" d="M92.484,235.405v13.2a15.7,15.7,0,0,1,10.11-3.544,18.352,18.352,0,1,1,0,36.7,15.72,15.72,0,0,1-10.11-3.538v2.894H84.435v-45.72Zm20.8,28.076c0-6.824-4.961-11.4-10.755-11.4-6.5,0-10.755,5.219-10.755,11.4,0,6.116,4.317,11.27,10.755,11.27C108.323,274.751,113.284,270.177,113.284,263.481Z" transform="translate(-0.416 -235.405)" fill="#fff"></path> <path data-v-4c754b49="" id="Path_330" data-name="Path 330" d="M91.839,255.492A18.4,18.4,0,0,1,110.32,237.2c10.3,0,18.352,8.242,18.352,18.932a12.287,12.287,0,0,1-.193,2.062l-28.527.124a10.853,10.853,0,0,0,10.69,8.634c4.381,0,7.92-1.74,9.208-5.8l7.469,1.224a18.026,18.026,0,0,1-16.677,11.528C99.952,273.909,91.839,265.8,91.839,255.492Zm28.849-3.35c-.966-4.7-5.536-7.92-10.368-7.92a10.534,10.534,0,0,0-10.368,7.92Z" transform="translate(31.934 -227.545)" fill="#fff"></path> <path data-v-4c754b49="" id="Path_331" data-name="Path 331" d="M99.723,235.405h8.049v45.72H99.723Z" transform="translate(66.382 -235.405)" fill="#fff"></path></g> <g data-v-4c754b49="" id="Group_382" data-name="Group 382" transform="translate(595.082 746.907)"><path data-v-4c754b49="" id="Path_40" data-name="Path 40" d="M-743.872,1603.75c-.058,5.619-3.343,9.369-8.945,10.711a24.633,24.633,0,0,1-5.616.577h-11.509a1.019,1.019,0,0,1-1.123-1.124v-20.33a1.019,1.019,0,0,1,1.123-1.123H-758.1a26.749,26.749,0,0,1,5.1.468c5.613,1.294,9.068,5.2,9.126,10.82" transform="translate(771.066 -1568.674)" fill="#fff"></path> <path data-v-4c754b49="" id="Path_41" data-name="Path 41" d="M-769.888,1556.279a1.059,1.059,0,0,1-1.178-1.158v-18.589a1.059,1.059,0,0,1,1.178-1.158H-759.6a25.833,25.833,0,0,1,4.84.436c5.327,1.206,8.605,4.776,8.66,10.016-.055,5.239-3.234,8.727-8.549,9.979a26.66,26.66,0,0,1-5.222.473Z" transform="translate(771.066 -1535.375)" fill="#fbd10e"></path></g></g></svg>